<svg xmlns="http://www.w3.org/2000/svg"  preserveAspectRatio="none" viewBox="0 0 369.76 202.72">
<defs>
    <style>
    .app-background{fill:#e3bd9b;}
    </style>
</defs>
<g id="Layer_2" data-name="Layer 2">
<g id="Layer_1-2" data-name="Layer 1">
<path class="app-background" d="M369.41,0c.77,67.1,0,135.17.26,202.64-123.2-.25-246.54.48-369.67-.26,3.16-2.67,5.6-6.1,8.6-8.95,5.69-5.54,11.52-11,17.51-16.2,15.92-13.45,32.56-26.18,50.38-37,26.05-15.84,53.65-29.42,83.12-37.57,14.47-4.12,29.27-6.9,43.94-10.19A299.32,299.32,0,0,0,243,80.36c20.74-7.91,41-17.15,60-28.63C327,37,349.87,20.32,369.41,0Z"/></g></g></svg>