<svg xmlns="http://www.w3.org/2000/svg"  preserveAspectRatio="none" viewBox="0 0 369.76 202.72"><defs>
<style>
.app-background{fill:#e3bd9b;}
</style>
</defs>
<g id="Layer_2" data-name="Layer 2"><g id="Layer_1-2" data-name="Layer 1">
<path class="app-background" d="M.35,202.72C-.41,135.62.35,67.55.09.08,123.29.33,246.63-.4,369.76.34c-3.15,2.67-5.6,6.11-8.6,9-5.69,5.54-11.52,11-17.51,16.2-15.92,13.45-32.56,26.18-50.38,37-26,15.83-53.65,29.41-83.11,37.56-14.48,4.12-29.28,6.9-43.95,10.19a299.36,299.36,0,0,0-39.44,12.11c-20.74,7.9-41,17.14-60,28.62C42.77,165.68,19.89,182.4.35,202.72Z"/></g></g></svg>