<svg xmlns="http://www.w3.org/2000/svg" viewBox="0 0 440.13 139.18"><defs></defs><g id="Layer_2" data-name="Layer 2"><g id="Layer_1-2" data-name="Layer 1"><path class="header-logo" d="M366.59,117.8c3.08-3.34,7-4.48,11.72-4.48,3.71,0,7.41-1.73,11.53-2.8V31H373.65l-.11-.77a16.62,16.62,0,0,0,1.88-.64c5.34-2.57,11-4.66,15.91-7.87s8.88-7.63,13.49-11.24a97.53,97.53,0,0,1,12-8.24,15.45,15.45,0,0,1,13.66-1.11c-5.93.2-10.65,3-14.88,6.74a4.47,4.47,0,0,0-1.67,2.63c-.11,12.24-.07,24.49-.07,36.74l.91.64Q422.9,39.2,431,30.46l.71.7c-1.47,2.53-3.11,5-4.39,7.61-4.81,10-1.52,18.29,9,21.82,3.2,1.07,3.85,2.55,3.82,5.58-.16,13.28,0,26.56-.12,39.84a6,6,0,0,1-1.15,3.88c-9,9-18.18,17.79-27.59,26.93-2.63-2-5.25-4-7.83-6-4.46-3.45-8.84-7-13.39-10.35a23.83,23.83,0,0,0-6.37-3.44c-6.37-2.14-9.21-1.21-12.92,4.29-3.51,5.2-6.75,10.58-10.29,16.17L348,128.45a36.34,36.34,0,0,1-18.57,8.75c3-2.64,5.68-4.8,8.11-7.24,4-4,6.24-8.53,6-14.71-.49-14.7-.18-29.43-.07-44.14a4.38,4.38,0,0,0-2.5-4.46c-4.5-2.56-7.22-6.18-5.47-11.84l-.7-.46c-3.09,3.22-6.23,6.39-9.2,9.72a4.67,4.67,0,0,0-.57,2.8c0,14.83.08,29.66-.08,44.48,0,4,3.55,4.34,4.91,6.07l11.74-5.23-17.17,25.1-12.21-8.8a35.88,35.88,0,0,1-18.62,8.64c7.12-6.41,15.86-11.4,13.84-23.64-7.94,6.38-12,14.94-17,23.29-3.29-2.61-6.45-5-9.43-7.54-1.51-1.3-2.59-1.2-4.35-.33-5.62,2.79-11.4,5.27-17.13,7.85a2.21,2.21,0,0,1-.85.13c4.14-4.35,8.54-8.68,12.55-13.34a9.38,9.38,0,0,0,2-5.64c.15-17.6.47-35.2-.17-52.77-.17-4.67-3.47-9.22-5.52-14.28-6,4.5-11.89,5.81-18.76,5.74.7-.56,1-1,1.4-1.1,10.52-3.62,19.06-10.1,26.67-18a24.33,24.33,0,0,1,5.94-4.66c3.6-1.92,7.15-1.21,10.65,1.37a70.25,70.25,0,0,0-8.13.72c-5.13,1-6.49,4.54-3.73,8.92,2.46,3.91,4.9,7.83,7.58,12.11L314.59,31.4l.36.26c-1.16,2.44-2.36,4.86-3.47,7.33a24.1,24.1,0,0,0-1.19,3.44c-3.35,12,4.53,15.11,13.36,13.85a6.32,6.32,0,0,0,2.93-1.92q11.49-11,22.9-22.15c.3-.29.67-.5,1.52-1.15-1.5,3.22-2.87,5.81-3.94,8.51a29.51,29.51,0,0,0-1.64,6.06c-.95,5.95,2.05,10,8,10.67a65.31,65.31,0,0,0,7.31,0v3.47c0,16,.2,32.1-.14,48.13C360.51,112.84,362,115.92,366.59,117.8ZM299,54.27c-2.64,2.79-5.42,5.47-7.86,8.44a8,8,0,0,0-1.85,4.59c-.13,13.38.25,26.77-.22,40.14-.2,5.65,2,8.83,5.94,10.64,3.6-1.57,6.6-3.28,9.81-4.14,2.52-.68,2.95-1.85,2.93-4.13q-.14-19.25,0-38.49c0-2.2-.53-3.53-2.61-4.71C299.82,63.56,298.56,60.48,299,54.27Zm109.8,55.08V60.43l-1.2-.31c-.55,1.68-1.56,3.36-1.58,5.05-.13,12,.43,24.12-.25,36.13-.42,7.51,1.44,12.61,8.56,15.64,2.72,1.17,5.08,3.2,7.95,5.06a18.16,18.16,0,0,0,.52-2.63c0-16.47,0-32.94-.13-49.41,0-1.1-1.15-2.45-2.12-3.24-2.7-2.21-5.32-4.41-5.74-8.15a37.1,37.1,0,0,1,0-4.22,3.76,3.76,0,0,0-1.05,2.79c0,14.81-.14,29.63.15,44.43C414,105.39,412.6,107.54,408.84,109.35Zm.34-94.21-1.28-.47c-.63,1.93-1.78,3.85-1.81,5.79-.18,10.49-.1,21-.09,31.45,0,1,.15,2.05.22,3.07l.8.24c.72-1.24,2.05-2.48,2.07-3.73C409.25,39.37,409.18,27.25,409.18,15.14Z"/><path class="header-logo" d="M63,113.71c-7.77,6.08-12.29,14.63-17.55,23.06l-12.11-9.06c-8.09,7.69-17.57,11.77-28.82,11.46,1.8-.69,3.62-1.33,5.4-2.06,6.51-2.67,12-6.62,15.59-12.81a13.83,13.83,0,0,0,1.8-6.5c.12-27.66.08-55.32.08-83V31.46h16.8v3c0,8.63-.05,17.26,0,25.89,0,1.27-1.07,3.58,1.6,3.47s1.45-2.34,1.47-3.63c.1-7.53,0-15.05,0-22.57,0-5.31,0-5.31,4.81-9V63.64H76.35V31c3.31.32,6.25.9,9.18.81a74.21,74.21,0,0,0,9.15-1.35V34c0,24.34.14,48.68-.11,73,0,5,.71,8.9,6.22,10.65,6.26-6,15.15-4.38,23-7.08V30.93H107.6l-.16-.81c13-2.41,21.83-11.35,31.26-19.47a77.72,77.72,0,0,1,13.76-9.06,13.57,13.57,0,0,1,11.85-.45c-5.8.2-10.39,3-14.56,6.57a5.08,5.08,0,0,0-1.85,3.21c-.13,12-.08,24.09-.08,37.11l16.84-16.44.43.32c-1.26,2.26-2.63,4.47-3.76,6.8-4.86,10-1.45,18.48,9.18,22,2.91,1,3.59,2.27,3.56,5.12-.16,13.38,0,26.77-.16,40.16a7.63,7.63,0,0,1-2,4.82c-8,8.07-16.25,16-24.42,23.91-.7.68-1.48,1.27-2.39,2.05-7.16-5.55-14.24-11-21.28-16.51a16.55,16.55,0,0,0-11.68-3.9,6.65,6.65,0,0,0-4.44,2.1c-3.85,5.12-7.37,10.48-11,15.77-.67,1-1.27,2-2.11,3.36L81.2,128.45c-5.52,4.72-11.92,7.45-20,8.8,1.5-1.1,2.26-1.58,2.93-2.16,2.58-2.26,5.23-4.44,7.64-6.86a15.34,15.34,0,0,0,4.71-12.17c-.4-10.71-.12-21.45-.12-32.18V80h-24v34.38c-3.55-1.68-5.23-3.62-5.06-7.53.36-8.17.06-16.36.14-24.55,0-2.22-.63-3.11-3.19-2.18V98.29c0,2.77.35,5.59-.08,8.29-1,6,1.6,9.62,6.19,11.54l12.25-5.23Zm80-53.31L141.6,60c-.56,1.72-1.58,3.43-1.6,5.15-.15,11.16-.11,22.32-.08,33.48,0,4.19-1.14,9.08.63,12.36s6.51,5,10,7.31c1.76,1.19,3.57,2.28,5.67,3.62a13.13,13.13,0,0,0,.54-2.29q0-24.86-.07-49.73a3.16,3.16,0,0,0-.86-2.3C151,64.4,147.52,60.51,148.48,54a8.52,8.52,0,0,0-.67,3.53c0,14.81-.14,29.62.1,44.43.06,3.74-1.54,5.59-4.85,7.23ZM85.58,48.26c-.21.9-.38,1.4-.44,1.91-.73,7.12-.63,14.38-4,21-.2.38,0,1,.15,1.53,1,5,2.19,9.89,2.89,14.89s.95,10.35,1.39,15.54a21.28,21.28,0,0,0,.65-5.32c.6-6.7.77-13.5,2.13-20.06a26,26,0,0,0-.26-12.57C86.66,59.88,86.4,54.29,85.58,48.26ZM143.2,15,142,14.67c-.7,1.88-2,3.76-2,5.66-.2,9.61-.09,19.23-.09,28.85v6a5,5,0,0,0,3.3-5.23c-.1-8.4,0-16.81,0-25.21C143.21,21.53,143.2,18.27,143.2,15Z"/><path class="header-logo" d="M182.84,125.13c2.41-1.44,4.85-2.82,7.2-4.36.79-.52,1.89-1.43,1.9-2.16.1-16.91.08-33.82.08-50.19l-10.24-5.24.11-1.2c6.45,2.94,10.78-.22,15-4.25,5.47-5.16,11.22-10,16.81-15,4.68-4.2,9.83-6.77,16.32-5a10.32,10.32,0,0,1,1.44.6l-11.27,3.38c2.6,10.06,14.29,13.32,28.5,8.14-2.4,2.62-4.53,4.66-6.27,7a8.68,8.68,0,0,0-1.79,4.66c-.14,12.5,0,25-.17,37.5a8.37,8.37,0,0,1-2,4.87c-3.85,4.55-8,8.86-12,13.27l-1.52-.9v-3.34c0-13.94-.05-27.88,0-41.82,0-2.13-.44-3.38-2.53-4.35-2.46-1.14-4.63-2.91-7.28-4.63-.08,1.16-.2,2.09-.2,3,0,14-.13,28.1.08,42.15.06,3.47-1.47,5.22-4.45,6.86-.08-1.11-.2-1.93-.2-2.75q0-25.89-.08-51.78a26.5,26.5,0,0,0-.78-4.44l-1,.08c-.06.79-.19,1.58-.19,2.37,0,18.47,0,36.95,0,55.42a4.4,4.4,0,0,0,2.53,4.48,69.28,69.28,0,0,1,7.56,4.79c1.77,1.3,2.93,1.15,4.47-.43,5.54-5.72,11.23-11.3,17.32-17.38.1,3.79.68,6.89-2.22,9.72-7.43,7.26-14.68,14.73-21.9,22.21-1.5,1.56-2.62,1.76-4.49.61-4.33-2.66-8.91-4.93-13.23-7.61-4.72-2.92-9.47-5.33-15.36-3.27Z"/><path class="header-logo" d="M19.72,81.17A68.33,68.33,0,0,0,19.63,74a2.87,2.87,0,0,0-2-2c-4.38-.06-8.76.12-13.13.31a25.37,25.37,0,0,0-3.64.76C5.2,65.51,11.25,61.79,19.41,61.57a118.38,118.38,0,0,1,1-11.86c.19-1.12,2.18-1.92,3.8-3.25.07,1.58.16,2.51.16,3.45,0,21.66,0,43.33-.1,65a8.52,8.52,0,0,1-1.81,5.36,90.72,90.72,0,0,1-11.36,10.39C9.32,132,6.46,131.93,3.88,132c7.27-3.53,11.43-9.65,15-16.36a5.89,5.89,0,0,0,.85-2.46c.07-6.74.14-13.49-.05-20.22a3.43,3.43,0,0,0-2.4-2.31C13.18,90.33,9.1,90.3,5,90.3a42,42,0,0,0-5,.55C2.8,85,7.78,82.58,19.72,81.17Z"/><path class="header-logo" d="M8.86,26.18,29.08,4.62c2,7.18,6.66,10.63,13.31,11.74a28.51,28.51,0,0,0,18-2.78c-.94,1.46-1.79,3-2.82,4.36C48.06,30.78,33,33.43,19.45,24.83A6.37,6.37,0,0,0,15,24.38a34.57,34.57,0,0,0-5.75,2.35Z"/><path class="header-logo" d="M58.07,26.28c6.66-7.1,13.31-14.21,20.06-21.42,5.83,12.25,17.5,15.31,31.13,8.49-1,5-9.75,13.91-16.61,15.42-8.09,1.77-15.89.83-23-3.56-2.38-1.48-4.22-1.82-6.59-.44a41.86,41.86,0,0,1-4.54,2Z"/><path class="header-logo" d="M270.11,119.44c-2.49-1.38-4.18-2.82-4.13-6.24.21-14.38,0-28.77.14-43.15a6,6,0,0,0-2.54-5.33c-4.09-3.15-8.35-5.8-13.95-5.78a8.67,8.67,0,0,1,9-.76,93.31,93.31,0,0,1,10.83,7.45,3.73,3.73,0,0,1,1,2.65q.11,25.22.06,50.45C270.53,118.9,270.33,119.08,270.11,119.44Z"/><path class="header-logo" d="M332.4,114c-3.53-1.53-4.53-3.8-4.47-7.24q.33-18.69,0-37.4c-.07-3.62,1.41-5.69,4.47-7.58Z"/><path class="header-logo" d="M296.49,113.83c-3-1.29-4.29-3.15-4.24-6.42q.27-19.08,0-38.17c-.06-3.45,1.21-5.61,4.26-7.44Z"/></g></g></svg>